<svg width="164" height="50" viewBox="0 0 164 50" fill="none" xmlns="http://www.w3.org/2000/svg">
<path d="M31.1079 37.7803C30.6847 37.9072 30.452 37.9919 30.4097 38.0342C30.4097 38.0765 30.3674 38.1188 30.2827 38.1611L29.7114 38.6689C29.2882 38.9652 29.0767 39.1133 29.0767 39.1133C28.7804 39.3249 28.5688 39.473 28.4419 39.5576C28.3573 39.6423 28.2726 39.7269 28.188 39.8115C28.1034 39.8962 28.0187 39.9808 27.9341 40.0654C27.5532 40.4463 27.3416 40.6579 27.2993 40.7002C27.257 40.7425 27.1935 40.7848 27.1089 40.8271C26.855 40.9541 26.6646 41.1234 26.5376 41.335C26.0298 41.6735 25.7124 41.8639 25.5854 41.9062C25.12 42.2025 24.866 42.3717 24.8237 42.4141C24.8237 42.4564 24.7814 42.4987 24.6968 42.541C24.2313 42.7103 23.9351 42.7949 23.8081 42.7949C23.7235 42.7949 23.6388 42.8161 23.5542 42.8584C22.8771 43.1969 22.327 43.3239 21.9038 43.2393C21.5653 43.1546 21.269 43.0277 21.0151 42.8584C20.6766 42.6891 20.4227 42.5833 20.2534 42.541C20.1265 42.4987 19.9995 42.4352 19.8726 42.3506C19.6187 42.0967 19.4494 41.9486 19.3647 41.9062C19.2801 41.8216 19.1955 41.737 19.1108 41.6523C18.8993 41.4408 18.6242 41.335 18.2856 41.335C17.9048 40.9541 17.6509 40.7637 17.5239 40.7637C17.4393 40.7214 17.3335 40.6579 17.2065 40.5732C16.9526 40.3617 16.7622 40.1924 16.6353 40.0654C16.339 39.7692 16.1274 39.5576 16.0005 39.4307C15.7466 39.0498 15.5773 38.8171 15.4927 38.7324C15.408 38.6478 15.3234 38.5632 15.2388 38.4785C14.7733 38.3939 14.5405 38.415 14.5405 38.542C14.5828 38.6266 14.5828 38.7113 14.5405 38.7959C14.4982 38.8805 14.4559 38.9863 14.4136 39.1133C14.3713 39.2402 14.3289 39.3672 14.2866 39.4941C14.1597 39.9596 14.0962 40.2135 14.0962 40.2559C13.9269 40.7214 13.8211 40.9753 13.7788 41.0176C13.7788 41.0176 13.7788 41.0599 13.7788 41.1445L13.5884 41.9062C13.5461 42.4141 13.5037 42.7314 13.4614 42.8584C13.4191 43.4085 13.3133 43.8317 13.144 44.1279C12.9748 44.6781 12.869 44.9743 12.8267 45.0166L12.6997 45.7148C12.6574 46.0534 12.6151 46.2861 12.5728 46.4131C12.5728 46.54 12.5728 46.6882 12.5728 46.8574C12.4458 47.2383 12.2977 47.5133 12.1284 47.6826C12.0015 48.0212 11.938 48.2116 11.938 48.2539C11.9803 48.2962 11.9803 48.3385 11.938 48.3809C11.7264 48.5501 11.5783 48.6771 11.4937 48.7617C11.409 48.8887 11.3244 48.9945 11.2397 49.0791C10.9435 49.1637 10.6685 49.1849 10.4146 49.1426C9.77979 49.1003 9.25081 49.0368 8.82764 48.9521C8.61605 48.8675 8.3833 48.7617 8.12939 48.6348C7.91781 48.5501 7.68506 48.4655 7.43115 48.3809C6.8387 48.127 6.52132 48 6.479 48C6.09814 47.9154 5.8654 47.8519 5.78076 47.8096C5.73844 47.7673 5.67497 47.7249 5.59033 47.6826C5.16715 47.5557 4.93441 47.471 4.89209 47.4287C4.84977 47.3441 4.80745 47.3441 4.76514 47.4287C4.21501 47.2594 3.85531 47.196 3.68604 47.2383C3.55908 47.2383 3.45329 47.196 3.36865 47.1113C3.03011 46.8151 2.81852 46.6458 2.73389 46.6035C2.69157 46.5189 2.58577 46.4766 2.4165 46.4766C2.07796 46.1803 1.8029 45.9688 1.59131 45.8418C1.37972 45.5033 1.16813 45.2705 0.956543 45.1436C0.702637 44.9743 0.575684 44.6992 0.575684 44.3184C0.575684 44.1068 0.596842 43.9375 0.63916 43.8105C0.681478 43.6836 0.744954 43.5355 0.82959 43.3662C0.998861 42.9854 1.10465 42.7526 1.14697 42.668C1.18929 42.541 1.25277 42.4141 1.3374 42.2871C1.50667 41.9486 1.63363 41.7158 1.71826 41.5889C1.8029 41.4619 1.86637 41.335 1.90869 41.208C1.95101 41.0387 2.01449 40.9118 2.09912 40.8271C2.18376 40.6156 2.24723 40.404 2.28955 40.1924C2.33187 39.9385 2.45882 39.748 2.67041 39.6211C2.79736 39.1133 2.92432 38.7959 3.05127 38.6689C3.00895 38.542 3.03011 38.3727 3.11475 38.1611C3.2417 37.9072 3.32633 37.738 3.36865 37.6533C3.62256 37.0609 3.81299 36.6377 3.93994 36.3838C4.10921 36.0876 4.25732 35.7702 4.38428 35.4316C4.59587 34.9661 4.72282 34.6911 4.76514 34.6064C4.80745 34.5218 4.84977 34.4372 4.89209 34.3525C5.06136 33.9294 5.146 33.7178 5.146 33.7178C5.146 33.6755 5.16715 33.6331 5.20947 33.5908C5.33643 33.3792 5.42106 33.1888 5.46338 33.0195C5.5057 32.8503 5.56917 32.7021 5.65381 32.5752C5.73844 32.3636 5.84424 32.1097 5.97119 31.8135C6.09814 31.5173 6.2251 31.2422 6.35205 30.9883C6.52132 30.5228 6.64827 30.29 6.73291 30.29C6.81755 29.9092 6.88102 29.7188 6.92334 29.7188C6.96566 29.6764 7.00798 29.613 7.05029 29.5283C7.17725 29.0628 7.24072 28.7878 7.24072 28.7031C7.28304 28.6185 7.32536 28.5339 7.36768 28.4492C7.40999 28.2376 7.45231 28.0472 7.49463 27.8779C7.53695 27.6663 7.57926 27.4759 7.62158 27.3066C7.74854 26.9258 7.89665 26.5661 8.06592 26.2275C8.15055 26.1006 8.21403 25.9525 8.25635 25.7832C8.34098 25.6139 8.44678 25.487 8.57373 25.4023C8.65837 25.0638 8.70068 24.8734 8.70068 24.8311C8.70068 24.7464 8.72184 24.6618 8.76416 24.5771C8.97575 24.0693 9.08154 23.8154 9.08154 23.8154C9.12386 23.7731 9.16618 23.7096 9.2085 23.625C9.4624 23.0749 9.58936 22.7152 9.58936 22.5459C9.63167 22.3766 9.69515 22.1862 9.77979 21.9746C9.86442 21.763 9.94906 21.5514 10.0337 21.3398C10.1606 21.1283 10.2241 20.8955 10.2241 20.6416C10.3088 20.557 10.3934 20.4512 10.478 20.3242C10.5627 20.1973 10.6473 20.0492 10.7319 19.8799C10.8589 19.5837 10.9224 19.3932 10.9224 19.3086C10.9224 19.1816 10.9435 19.0758 10.9858 18.9912C11.0705 18.7796 11.1551 18.6104 11.2397 18.4834C11.3244 18.3141 11.3879 18.1237 11.4302 17.9121C11.6418 17.362 11.8322 16.9176 12.0015 16.5791C12.1707 16.2406 12.2977 15.902 12.3823 15.5635C12.467 15.3519 12.5093 15.1615 12.5093 14.9922C12.5516 14.8229 12.6151 14.6325 12.6997 14.4209C12.7843 14.167 12.8901 13.9131 13.0171 13.6592L13.144 12.834C13.1864 12.7493 13.2287 12.6647 13.271 12.5801C13.3133 12.4531 13.3768 12.3262 13.4614 12.1992C13.5884 11.8184 13.6519 11.5221 13.6519 11.3105C13.6942 11.0566 13.7576 10.8239 13.8423 10.6123C13.9692 10.1891 14.0539 9.95638 14.0962 9.91406C14.2655 9.23698 14.4136 8.68685 14.5405 8.26367C14.7098 7.58659 14.8368 7.12109 14.9214 6.86719C15.006 6.61328 15.0907 6.31706 15.1753 5.97852C15.2176 5.72461 15.2599 5.55534 15.3022 5.4707C15.3446 5.38607 15.3869 5.28027 15.4292 5.15332C15.5562 4.64551 15.6408 4.32812 15.6831 4.20117C15.7677 4.0319 15.8524 3.90495 15.937 3.82031L16.3813 2.86816C16.5506 2.69889 16.6564 2.50846 16.6987 2.29688C16.7834 2.08529 16.9526 1.93717 17.2065 1.85254C17.3758 1.47168 17.4816 1.28125 17.5239 1.28125C17.5662 1.23893 17.6086 1.17546 17.6509 1.09082C17.8201 0.836914 17.9894 0.625326 18.1587 0.456055C18.328 0.286784 18.4761 0.18099 18.603 0.138672C18.73 0.0963542 18.8569 0.0963542 18.9839 0.138672C19.1532 0.138672 19.3013 0.159831 19.4282 0.202148C19.7668 0.117513 19.936 0.138672 19.936 0.265625C19.9784 0.35026 20.063 0.371419 20.1899 0.329102C20.6554 0.371419 20.9728 0.392578 21.1421 0.392578C21.3114 0.35026 21.5018 0.371419 21.7134 0.456055C22.2212 0.371419 22.5386 0.434896 22.6655 0.646484C23.0887 0.477214 23.3003 0.413737 23.3003 0.456055C23.3003 0.456055 23.3426 0.456055 23.4272 0.456055C23.8927 0.413737 24.189 0.392578 24.3159 0.392578C24.4429 0.35026 24.5698 0.329102 24.6968 0.329102C24.9084 0.329102 25.0988 0.329102 25.2681 0.329102C25.4797 0.286784 25.6912 0.265625 25.9028 0.265625C26.1991 0.265625 26.4741 0.329102 26.728 0.456055C26.9819 0.54069 27.2147 0.646484 27.4263 0.773438C27.8494 1.11198 28.0399 1.30241 27.9976 1.34473C27.9552 1.38704 27.9764 1.42936 28.061 1.47168C28.1457 1.55632 28.2303 1.66211 28.3149 1.78906C28.3996 1.8737 28.4631 1.95833 28.5054 2.04297C28.5477 2.1276 28.5477 2.2334 28.5054 2.36035C28.5054 2.4873 28.5054 2.61426 28.5054 2.74121C28.59 3.12207 28.717 3.46061 28.8862 3.75684C29.0978 4.1377 29.2036 4.3916 29.2036 4.51855C29.2036 4.60319 29.2459 4.70898 29.3306 4.83594C29.3729 5.13216 29.5633 5.40723 29.9019 5.66113C29.9442 6.12663 30.1134 6.61328 30.4097 7.12109C30.5366 7.29036 30.6213 7.54427 30.6636 7.88281C30.7059 8.0944 30.7482 8.26367 30.7905 8.39062C30.8752 8.51758 30.9598 8.68685 31.0444 8.89844C31.2137 9.32161 31.3407 9.66016 31.4253 9.91406C31.5099 10.168 31.5946 10.4007 31.6792 10.6123C31.7215 10.7393 31.7638 10.8874 31.8062 11.0566C31.8908 11.2259 31.9543 11.4163 31.9966 11.6279C32.0812 11.8395 32.1447 12.0299 32.187 12.1992C32.2293 12.3262 32.314 12.4743 32.4409 12.6436C32.6102 12.9398 32.6948 13.1725 32.6948 13.3418C32.6948 13.4688 32.7371 13.6169 32.8218 13.7861C32.9064 13.9554 32.9699 14.1247 33.0122 14.2939C33.0968 14.4209 33.2026 14.5479 33.3296 14.6748C33.3296 14.8864 33.3507 15.0768 33.3931 15.2461C33.4777 15.4154 33.5623 15.5846 33.647 15.7539C33.8162 16.2617 33.9009 16.5791 33.9009 16.7061C33.9855 16.833 34.0278 16.96 34.0278 17.0869C34.0701 17.1715 34.1336 17.2562 34.2183 17.3408C34.2606 17.5947 34.3452 17.8275 34.4722 18.0391C34.5568 18.166 34.6203 18.293 34.6626 18.4199C34.7472 18.5469 34.8319 18.6738 34.9165 18.8008C35.0858 19.1816 35.1493 19.4567 35.1069 19.626C35.1069 19.7529 35.1281 19.8799 35.1704 20.0068C35.2127 20.43 35.382 20.8532 35.6782 21.2764C35.8475 21.9958 35.9956 22.4401 36.1226 22.6094C36.2072 22.821 36.2918 23.0749 36.3765 23.3711C36.4611 23.6673 36.5457 23.9212 36.6304 24.1328C36.715 24.2598 36.7785 24.3656 36.8208 24.4502C36.8631 24.5348 36.9054 24.6829 36.9478 24.8945C37.0324 25.3177 37.117 25.6139 37.2017 25.7832C37.2863 25.9102 37.3498 26.0371 37.3921 26.1641C37.4344 26.2487 37.4767 26.3757 37.519 26.5449C37.6037 26.7565 37.6672 26.9258 37.7095 27.0527C37.7518 27.1797 37.8153 27.3066 37.8999 27.4336C37.9845 27.6029 38.0269 27.751 38.0269 27.8779C38.0692 28.0049 38.1326 28.153 38.2173 28.3223C38.3442 28.7454 38.45 29.0205 38.5347 29.1475C38.6193 29.2321 38.7039 29.359 38.7886 29.5283C38.8732 29.6976 38.9155 29.8669 38.9155 30.0361C38.9578 30.2054 39.0213 30.3958 39.106 30.6074C39.1906 30.7344 39.2752 30.8613 39.3599 30.9883C39.4445 31.0729 39.5291 31.1999 39.6138 31.3691C39.7407 31.7077 39.8042 31.9193 39.8042 32.0039C39.8042 32.0885 39.8465 32.1732 39.9312 32.2578C40.2274 32.681 40.3755 32.9349 40.3755 33.0195C40.3755 33.1042 40.3755 33.1888 40.3755 33.2734C40.4601 33.485 40.5448 33.6755 40.6294 33.8447C40.7563 33.9717 40.8621 34.1198 40.9468 34.2891C41.1584 34.7122 41.2853 35.0085 41.3276 35.1777C41.4123 35.347 41.4969 35.4951 41.5815 35.6221C41.7085 35.749 41.8566 35.9395 42.0259 36.1934C42.1528 36.5319 42.2163 36.7223 42.2163 36.7646C42.2163 36.807 42.2586 36.8704 42.3433 36.9551C42.5125 37.4629 42.6183 37.738 42.6606 37.7803C42.703 37.8226 42.7241 37.8649 42.7241 37.9072C42.8088 37.9919 42.8511 38.0977 42.8511 38.2246C42.8511 38.3516 42.8934 38.4785 42.978 38.6055C43.0203 38.7324 43.0627 38.8594 43.105 38.9863C43.1896 39.071 43.2531 39.1768 43.2954 39.3037C43.5493 39.7692 43.6763 40.0443 43.6763 40.1289C43.9725 40.4674 44.1206 40.7002 44.1206 40.8271C44.1629 40.9541 44.2264 41.0599 44.311 41.1445C44.3957 41.3138 44.5226 41.5254 44.6919 41.7793C44.9881 42.2871 45.1997 42.5833 45.3267 42.668C45.4959 42.7526 45.6229 42.8796 45.7075 43.0488C45.8768 43.472 45.9826 43.7894 46.0249 44.001C46.0672 44.2126 46.1307 44.403 46.2153 44.5723C46.0461 45.0378 45.9614 45.2917 45.9614 45.334L45.3901 45.7783C45.0939 46.1169 44.9035 46.2861 44.8188 46.2861C44.7342 46.2861 44.6496 46.3073 44.5649 46.3496C43.8879 46.5189 43.3166 46.7728 42.8511 47.1113C42.4279 47.196 42.174 47.2594 42.0894 47.3018C42.047 47.3018 42.0047 47.3441 41.9624 47.4287C41.7931 47.4287 41.645 47.4499 41.5181 47.4922C41.3911 47.5345 41.2642 47.5768 41.1372 47.6191C41.0526 47.6615 40.9468 47.6826 40.8198 47.6826C40.7352 47.6826 40.6082 47.7038 40.439 47.7461C40.312 47.7884 40.1639 47.8519 39.9946 47.9365C39.8677 48.0212 39.7196 48.1058 39.5503 48.1904C39.4657 48.2327 39.3599 48.2751 39.2329 48.3174C39.106 48.402 39.0002 48.4655 38.9155 48.5078C38.7039 48.5501 38.4712 48.5713 38.2173 48.5713C37.9634 48.6136 37.7095 48.6559 37.4556 48.6982C37.244 48.7406 37.0535 48.7617 36.8843 48.7617C36.715 48.7617 36.5246 48.7829 36.313 48.8252C36.0168 48.8252 35.8052 48.804 35.6782 48.7617C35.5513 48.7617 35.4032 48.7406 35.2339 48.6982C35.0646 48.6136 34.9165 48.5713 34.7896 48.5713C34.6626 48.6136 34.5568 48.6136 34.4722 48.5713C34.0067 47.9365 33.6893 47.5133 33.52 47.3018C33.3931 47.0479 33.3084 46.6882 33.2661 46.2227L32.9487 45.4609C32.9064 45.2917 32.8853 45.0589 32.8853 44.7627C32.6737 44.2972 32.5679 44.001 32.5679 43.874C32.4409 43.6201 32.3774 43.3451 32.3774 43.0488C32.3774 42.7526 32.3351 42.4775 32.2505 42.2236C32.1659 42.012 32.1024 41.7793 32.0601 41.5254C32.0601 41.2715 32.0177 40.9964 31.9331 40.7002C31.8908 40.5309 31.8485 40.3617 31.8062 40.1924C31.7638 39.9808 31.7215 39.7692 31.6792 39.5576C31.5522 39.0498 31.4888 38.7959 31.4888 38.7959C31.3195 38.3727 31.1925 38.0342 31.1079 37.7803ZM22.729 15.5635C22.2635 15.8597 21.9884 16.2194 21.9038 16.6426C21.8615 17.0234 21.7557 17.3408 21.5864 17.5947C21.3748 18.1025 21.2267 18.4834 21.1421 18.7373C21.0575 18.8219 21.0151 18.9277 21.0151 19.0547C21.0151 19.1816 20.994 19.3086 20.9517 19.4355C20.7401 19.901 20.6131 20.2184 20.5708 20.3877C20.5708 20.5146 20.5285 20.6839 20.4438 20.8955C20.3169 20.9801 20.2323 21.1283 20.1899 21.3398C20.1476 21.5091 20.063 21.6572 19.936 21.7842C19.8514 22.3766 19.7244 22.8844 19.5552 23.3076C19.3436 23.8577 19.2166 24.1963 19.1743 24.3232C19.1743 24.4079 19.1743 24.5348 19.1743 24.7041C18.9627 25.1273 18.8569 25.3812 18.8569 25.4658C18.8569 25.5081 18.8146 25.5716 18.73 25.6562C18.603 25.9525 18.4972 26.1641 18.4126 26.291C18.3703 26.418 18.328 26.5238 18.2856 26.6084C18.1587 27.0739 18.0741 27.3913 18.0317 27.5605C17.9894 27.7298 17.9471 27.8779 17.9048 28.0049C17.8201 28.5973 17.7567 28.9359 17.7144 29.0205C17.7144 29.1051 17.672 29.2109 17.5874 29.3379C17.5028 29.5495 17.4393 29.7399 17.397 29.9092C17.397 30.0361 17.3547 30.1842 17.27 30.3535C17.1854 30.7767 17.1219 31.0729 17.0796 31.2422C16.995 31.5384 16.9315 31.7288 16.8892 31.8135C16.8468 31.8981 16.8045 31.9827 16.7622 32.0674C16.5929 32.4906 16.5083 32.7445 16.5083 32.8291C16.466 33.0407 16.4025 33.2311 16.3179 33.4004C16.2756 33.5273 16.2332 33.6543 16.1909 33.7812C16.3602 33.8659 16.5083 33.9082 16.6353 33.9082C16.7622 33.8659 16.9315 33.8236 17.1431 33.7812C17.4816 33.9505 17.8625 33.9928 18.2856 33.9082C18.7511 33.7812 19.0897 33.7812 19.3013 33.9082C19.3859 33.8236 19.4917 33.7812 19.6187 33.7812C19.7879 33.7812 19.936 33.7812 20.063 33.7812C20.1899 33.7389 20.4227 33.7178 20.7612 33.7178C20.8882 33.7178 21.0151 33.7389 21.1421 33.7812C21.3114 33.7812 21.4806 33.7812 21.6499 33.7812H23.1099C23.4484 33.7389 23.6388 33.7389 23.6812 33.7812C23.7235 33.7812 23.7869 33.7812 23.8716 33.7812C23.9562 33.8236 24.062 33.8447 24.189 33.8447C24.3159 33.8024 24.4429 33.7812 24.5698 33.7812H26.1567H27.1089C27.3205 33.7812 27.5109 33.7601 27.6802 33.7178C27.8918 33.6755 28.061 33.6966 28.188 33.7812C28.3149 33.7389 28.59 33.7178 29.0132 33.7178C29.2248 33.1676 29.3306 32.8926 29.3306 32.8926C29.1613 32.5117 29.0343 32.1943 28.9497 31.9404C28.9074 31.6865 28.8228 31.4326 28.6958 31.1787C28.6958 30.9671 28.6535 30.7555 28.5688 30.5439C28.5265 30.3324 28.4842 30.1208 28.4419 29.9092C28.3149 29.4014 28.2303 29.0628 28.188 28.8936C28.1457 28.682 28.0822 28.4915 27.9976 28.3223C27.8283 27.9837 27.7437 27.7721 27.7437 27.6875C27.7437 27.5605 27.7225 27.4548 27.6802 27.3701C27.4686 26.9469 27.3628 26.6507 27.3628 26.4814C27.2782 26.3122 27.1935 26.0583 27.1089 25.7197C26.8973 25.2965 26.7915 25.0215 26.7915 24.8945C26.7915 24.7253 26.7703 24.5983 26.728 24.5137C26.5588 24.0059 26.453 23.6885 26.4106 23.5615C26.4106 23.4346 26.3895 23.3288 26.3472 23.2441C26.3049 23.1172 26.2625 23.0114 26.2202 22.9268C26.2202 22.7998 26.1991 22.6729 26.1567 22.5459C25.9451 22.2074 25.8182 21.9535 25.7759 21.7842C25.7336 21.6149 25.6701 21.4668 25.5854 21.3398C25.5008 21.1283 25.4373 20.9167 25.395 20.7051C25.3527 20.4935 25.2892 20.3242 25.2046 20.1973L24.8872 19.3721C24.6333 18.7796 24.4429 18.3988 24.3159 18.2295C24.189 18.0602 24.1255 17.8698 24.1255 17.6582C23.9139 17.4043 23.8081 17.1927 23.8081 17.0234C23.6812 16.8118 23.6177 16.6637 23.6177 16.5791C23.6177 16.4521 23.5754 16.3464 23.4907 16.2617C23.2791 15.7962 23.0252 15.5635 22.729 15.5635ZM75.2241 25.6562C75.3088 25.7832 75.3722 25.9102 75.4146 26.0371C75.4569 26.1641 75.5203 26.2699 75.605 26.3545C75.8166 26.6084 75.9647 26.7777 76.0493 26.8623C76.134 26.9469 76.2186 27.0104 76.3032 27.0527C76.4725 27.1797 76.5994 27.2855 76.6841 27.3701C76.7687 27.4124 76.8322 27.4759 76.8745 27.5605C77.0015 27.6029 77.1073 27.6875 77.1919 27.8145C77.2765 27.8991 77.4035 27.9414 77.5728 27.9414C77.8267 28.4069 78.0594 28.6608 78.271 28.7031L78.8423 29.1475C78.9269 29.2321 79.0116 29.3379 79.0962 29.4648C79.2231 29.5495 79.3501 29.6341 79.4771 29.7188C79.9425 30.1419 80.1965 30.417 80.2388 30.5439C80.535 30.9248 80.7466 31.1576 80.8735 31.2422C81.0005 31.3268 81.1063 31.4115 81.1909 31.4961C81.5295 31.8346 81.7834 32.1309 81.9526 32.3848C82.3335 32.7233 82.5451 32.9772 82.5874 33.1465C82.6297 33.3158 82.6932 33.4427 82.7778 33.5273C82.9048 33.9082 82.9683 34.1621 82.9683 34.2891C83.2222 34.7122 83.3703 35.0508 83.4126 35.3047C83.4972 35.5163 83.5819 35.749 83.6665 36.0029C83.6242 36.4684 83.5819 36.7646 83.5396 36.8916C83.5396 37.0186 83.5184 37.1455 83.4761 37.2725C83.2645 37.7803 83.1587 38.0977 83.1587 38.2246C83.201 38.3516 83.1799 38.4997 83.0952 38.6689C83.0529 38.8382 82.9683 38.9863 82.8413 39.1133C82.7567 39.2402 82.7144 39.4095 82.7144 39.6211C82.5874 39.7057 82.4816 39.8115 82.397 39.9385C82.3123 40.0654 82.2277 40.1924 82.1431 40.3193C81.8468 40.6156 81.6776 40.7848 81.6353 40.8271C81.5929 40.8271 81.5295 40.8695 81.4448 40.9541L80.937 41.7158C80.6408 42.0544 80.4715 42.2448 80.4292 42.2871C80.3869 42.2871 80.3446 42.3294 80.3022 42.4141C80.0907 42.6257 79.9002 42.8584 79.731 43.1123C79.1808 43.4508 78.7576 43.8105 78.4614 44.1914C77.9959 44.4876 77.7209 44.6781 77.6362 44.7627C77.5939 44.805 77.5304 44.8685 77.4458 44.9531C77.1496 45.0801 76.938 45.1859 76.811 45.2705C76.7264 45.3551 76.6418 45.4398 76.5571 45.5244C76.0916 45.8206 75.7743 46.0111 75.605 46.0957L75.0337 46.54C74.7375 46.7939 74.5682 46.9209 74.5259 46.9209C74.4836 46.9209 74.4412 46.9421 74.3989 46.9844L73.8276 47.4287C73.4891 47.5133 73.2987 47.5768 73.2563 47.6191C73.214 47.6615 73.1506 47.6826 73.0659 47.6826C72.7274 47.8942 72.3254 48.0423 71.8599 48.127C71.4367 48.2116 71.0135 48.3385 70.5903 48.5078C70.2095 48.4655 69.9556 48.4443 69.8286 48.4443C69.744 48.4443 69.6593 48.4655 69.5747 48.5078C69.1515 48.5501 68.7918 48.5924 68.4956 48.6348C68.2417 48.6771 67.9666 48.6982 67.6704 48.6982L66.5278 48.6348C66.0623 48.5501 65.7873 48.4867 65.7026 48.4443C65.618 48.402 65.5334 48.3597 65.4487 48.3174C65.0679 48.2327 64.8351 48.1904 64.7505 48.1904C64.6659 48.2327 64.5812 48.2539 64.4966 48.2539C64.285 48.2539 64.0946 48.2327 63.9253 48.1904C63.7983 48.1904 63.6291 48.1904 63.4175 48.1904C63.2905 48.1904 63.1424 48.1904 62.9731 48.1904C62.8462 48.2327 62.6981 48.2327 62.5288 48.1904C62.4442 48.1904 62.3172 48.1904 62.1479 48.1904C62.021 48.2327 61.9152 48.2539 61.8306 48.2539C61.492 48.2539 61.2381 48.2751 61.0688 48.3174C60.9419 48.3597 60.7515 48.3809 60.4976 48.3809C60.159 48.3385 59.9263 48.3385 59.7993 48.3809C59.7147 48.4232 59.63 48.4655 59.5454 48.5078C59.1222 48.5924 58.7414 48.6136 58.4028 48.5713C58.0643 48.5713 57.7892 48.6348 57.5776 48.7617C57.4084 48.6771 57.2391 48.6348 57.0698 48.6348C56.9429 48.6771 56.7948 48.7194 56.6255 48.7617C56.033 48.7194 55.6099 48.7194 55.356 48.7617C55.1021 48.804 54.827 48.804 54.5308 48.7617C54.1922 48.6771 54.0018 48.6348 53.9595 48.6348C53.9172 48.6771 53.8537 48.6982 53.769 48.6982C53.6844 48.6982 53.5575 48.6771 53.3882 48.6348C53.2189 48.6348 53.092 48.6559 53.0073 48.6982C52.3302 48.529 51.8859 48.4655 51.6743 48.5078C51.4627 48.5501 51.2511 48.5501 51.0396 48.5078C50.828 48.4232 50.6164 48.3174 50.4048 48.1904C50.1086 47.9365 49.9181 47.7673 49.8335 47.6826C49.7912 47.598 49.77 47.5133 49.77 47.4287C49.77 47.0902 49.7489 46.8574 49.7065 46.7305C49.7065 46.6035 49.7065 46.4766 49.7065 46.3496C49.7489 46.138 49.7489 45.9899 49.7065 45.9053C49.7065 45.7783 49.7065 45.6514 49.7065 45.5244L49.6431 44.5088V43.7471C49.7277 43.4508 49.7489 43.2816 49.7065 43.2393C49.7065 43.1546 49.7277 43.07 49.77 42.9854C49.8123 42.7738 49.8335 42.5833 49.8335 42.4141C49.8758 42.2448 49.9181 42.012 49.9604 41.7158C50.0874 41.2503 50.1297 40.9753 50.0874 40.8906C50.0874 40.7637 50.0874 40.6579 50.0874 40.5732C50.1297 40.3617 50.172 40.1924 50.2144 40.0654C50.2567 39.8962 50.2778 39.7269 50.2778 39.5576V38.7959C50.3201 38.4997 50.3201 38.3304 50.2778 38.2881C50.2778 38.2458 50.2778 38.1823 50.2778 38.0977C50.3201 37.8861 50.3413 37.6745 50.3413 37.4629C50.3836 37.209 50.4048 36.9339 50.4048 36.6377C50.4471 36.0876 50.4471 35.7702 50.4048 35.6855C50.4048 35.6009 50.4048 35.5163 50.4048 35.4316C50.4471 34.9238 50.4471 34.5853 50.4048 34.416C50.4048 34.2467 50.4048 34.0563 50.4048 33.8447C50.4471 33.7601 50.4471 33.6543 50.4048 33.5273C50.3625 33.3581 50.3413 33.1888 50.3413 33.0195C50.3413 32.8503 50.3413 32.7021 50.3413 32.5752C50.3836 32.4059 50.4048 32.2155 50.4048 32.0039C50.4048 31.4538 50.3836 31.0518 50.3413 30.7979C50.3413 30.5439 50.3201 30.29 50.2778 30.0361C50.2778 29.8669 50.2567 29.7188 50.2144 29.5918C50.2144 29.4225 50.2144 29.2533 50.2144 29.084V27.1797C50.172 26.7565 50.1509 26.5238 50.1509 26.4814L50.0239 24.2598C49.9816 24.1328 49.9393 24.0059 49.897 23.8789C49.8547 23.752 49.8335 23.625 49.8335 23.498L49.897 22.7363L49.9604 21.9111C49.9181 21.4456 49.8547 21.0859 49.77 20.832C49.8123 20.2396 49.7912 19.8587 49.7065 19.6895C49.6642 19.4779 49.6854 19.2874 49.77 19.1182C49.77 18.8219 49.7489 18.6315 49.7065 18.5469C49.7065 18.4199 49.7065 18.3141 49.7065 18.2295C49.5373 17.4678 49.4315 16.8965 49.3892 16.5156C49.3468 16.2194 49.3468 15.902 49.3892 15.5635C49.4315 15.2249 49.4315 14.8864 49.3892 14.5479C49.3892 14.4209 49.368 14.2939 49.3257 14.167C49.3257 14.04 49.3257 13.9342 49.3257 13.8496C49.2834 13.5957 49.2834 13.3206 49.3257 13.0244C49.368 12.7282 49.3892 12.4743 49.3892 12.2627C49.3892 11.8818 49.368 11.6702 49.3257 11.6279C49.2834 11.5856 49.2622 11.5433 49.2622 11.501C49.2622 11.3317 49.2834 11.1836 49.3257 11.0566C49.368 10.9297 49.3892 10.8027 49.3892 10.6758L49.3257 9.34277C49.2834 9.21582 49.241 9.11003 49.1987 9.02539C49.1564 8.89844 49.1353 8.75033 49.1353 8.58105V7.56543C49.1353 7.18457 49.1141 6.80371 49.0718 6.42285C49.0295 5.99967 49.0506 5.63997 49.1353 5.34375C49.0506 5.2168 49.0083 5.00521 49.0083 4.70898C49.0506 4.37044 49.0083 4.1377 48.8813 4.01074C48.9237 3.50293 48.9237 3.22786 48.8813 3.18555C48.839 3.14323 48.8179 3.07975 48.8179 2.99512C48.8179 2.61426 48.8602 2.40267 48.9448 2.36035C49.0295 2.27572 49.0295 2.16992 48.9448 2.04297C49.1987 1.57747 49.3892 1.34473 49.5161 1.34473C49.6854 1.30241 49.8123 1.23893 49.897 1.1543C50.1086 1.1543 50.2567 1.17546 50.3413 1.21777C50.4259 1.21777 50.5106 1.1543 50.5952 1.02734H51.3569C51.6955 1.11198 51.8859 1.1543 51.9282 1.1543C51.9705 1.11198 52.034 1.09082 52.1187 1.09082C52.6265 1.13314 53.0073 1.13314 53.2612 1.09082C53.5575 1.0485 53.8325 1.06966 54.0864 1.1543C54.2134 1.06966 54.3615 1.0485 54.5308 1.09082C54.7424 1.13314 54.8481 1.11198 54.8481 1.02734C55.3136 1.06966 55.6099 1.11198 55.7368 1.1543C55.8638 1.1543 55.9696 1.13314 56.0542 1.09082C56.689 1.00618 57.0487 0.985026 57.1333 1.02734C57.4718 1.06966 57.6623 1.09082 57.7046 1.09082C57.7892 1.0485 57.8739 1.02734 57.9585 1.02734C58.4663 1.02734 58.7202 0.985026 58.7202 0.900391C59.355 1.11198 59.8205 1.19661 60.1167 1.1543C60.4552 1.06966 60.7303 1.02734 60.9419 1.02734H62.4653C62.8039 0.985026 63.1001 0.963867 63.354 0.963867C63.6079 0.921549 63.883 0.858073 64.1792 0.773438C64.6024 0.900391 64.8563 0.942708 64.9409 0.900391C65.0679 0.858073 65.1948 0.815755 65.3218 0.773438H66.5278C67.2049 0.773438 67.6916 0.773438 67.9878 0.773438C68.3263 0.773438 68.6649 0.773438 69.0034 0.773438C69.2573 0.73112 69.4689 0.709961 69.6382 0.709961C69.8498 0.667643 70.0402 0.604167 70.2095 0.519531L70.9712 0.709961C71.3521 0.709961 71.5636 0.709961 71.606 0.709961C71.6483 0.667643 71.7118 0.667643 71.7964 0.709961C72.1349 0.836914 72.3254 0.900391 72.3677 0.900391C72.41 0.900391 72.4735 0.921549 72.5581 0.963867C72.6851 1.00618 72.812 1.0485 72.939 1.09082C73.0659 1.13314 73.214 1.1543 73.3833 1.1543C73.8488 1.36589 74.2085 1.514 74.4624 1.59863C74.674 1.93717 74.8221 2.14876 74.9067 2.2334C75.0337 2.31803 75.1395 2.42383 75.2241 2.55078C75.478 2.84701 75.605 3.01628 75.605 3.05859C75.6473 3.10091 75.6896 3.14323 75.7319 3.18555C75.9858 3.48177 76.1128 3.65104 76.1128 3.69336C76.1128 3.69336 76.134 3.71452 76.1763 3.75684C76.3455 3.92611 76.4725 4.07422 76.5571 4.20117C76.6418 4.32812 76.7476 4.43392 76.8745 4.51855C77.1284 4.81478 77.3188 5.06868 77.4458 5.28027C77.6151 5.44954 77.7843 5.63997 77.9536 5.85156C78.2922 6.31706 78.5249 6.61328 78.6519 6.74023C78.7788 6.86719 78.8846 7.0153 78.9692 7.18457C79.1385 7.31152 79.2655 7.41732 79.3501 7.50195C79.4347 7.58659 79.5194 7.67122 79.604 7.75586C80.0272 8.30599 80.2811 8.68685 80.3657 8.89844C80.6619 9.19466 80.8524 9.38509 80.937 9.46973C81.0216 9.55436 81.1063 9.639 81.1909 9.72363C81.4448 10.1891 81.6564 10.5065 81.8257 10.6758C82.1642 11.0566 82.3335 11.2682 82.3335 11.3105C82.3758 11.3529 82.4393 11.4375 82.5239 11.5645C82.8201 11.903 82.9894 12.1146 83.0317 12.1992C83.328 12.6224 83.4761 12.8551 83.4761 12.8975C83.5184 12.9398 83.5607 12.9821 83.603 13.0244C83.8993 13.4053 84.0474 13.6803 84.0474 13.8496C84.0474 13.9766 84.0897 14.1458 84.1743 14.3574C84.3013 14.696 84.3859 14.8864 84.4282 14.9287C84.4705 14.971 84.4917 15.0345 84.4917 15.1191C84.534 15.5846 84.5129 15.9655 84.4282 16.2617C84.3436 16.6426 84.259 16.8753 84.1743 16.96C84.132 17.0446 84.0897 17.1292 84.0474 17.2139C83.9627 17.3408 83.9204 17.4889 83.9204 17.6582C83.9627 17.7852 83.9416 17.9333 83.8569 18.1025C83.4761 18.4411 83.2222 18.6738 83.0952 18.8008C83.0106 18.8854 82.9259 18.9701 82.8413 19.0547C82.5874 19.3509 82.4393 19.5837 82.397 19.7529C82.1854 19.8376 82.0373 19.9645 81.9526 20.1338C81.9103 20.2607 81.7834 20.3665 81.5718 20.4512C81.4871 20.6628 81.3813 20.8109 81.2544 20.8955C81.1274 20.9378 81.0216 21.0648 80.937 21.2764C80.3869 21.5726 79.9425 21.8477 79.604 22.1016C79.5194 22.1862 79.4347 22.2708 79.3501 22.3555C79.2655 22.4401 79.1597 22.5036 79.0327 22.5459C78.8211 22.7575 78.673 22.9056 78.5884 22.9902C78.5461 23.0326 78.4826 23.096 78.3979 23.1807C78.0594 23.3499 77.7209 23.5615 77.3823 23.8154C76.9591 24.1117 76.7052 24.2809 76.6206 24.3232C76.5783 24.3232 76.5148 24.3656 76.4302 24.4502C76.0493 24.8311 75.8377 25.0426 75.7954 25.085C75.4992 25.3812 75.3511 25.5505 75.3511 25.5928C75.3511 25.5928 75.3088 25.6139 75.2241 25.6562ZM71.8599 14.6113C71.5636 14.1882 71.4155 13.9554 71.4155 13.9131C71.4155 13.8708 71.3944 13.8073 71.3521 13.7227C71.0981 13.4688 70.95 13.2995 70.9077 13.2148C70.9077 13.1302 70.8654 13.0456 70.7808 12.9609C70.5269 12.6224 70.3787 12.432 70.3364 12.3896C70.1248 12.0934 69.9556 11.8818 69.8286 11.7549C69.744 11.6702 69.6593 11.5645 69.5747 11.4375C69.5324 11.3105 69.4689 11.2048 69.3843 11.1201C69.0457 10.7816 68.8553 10.6123 68.813 10.6123C68.5168 10.2738 68.3263 10.0622 68.2417 9.97754C67.9455 9.59668 67.7762 9.40625 67.7339 9.40625C67.7339 9.36393 67.7127 9.34277 67.6704 9.34277L67.0991 8.83496C67.0145 8.70801 66.9299 8.60221 66.8452 8.51758C66.8029 8.43294 66.7394 8.32715 66.6548 8.2002C66.5278 8.15788 66.4009 8.0944 66.2739 8.00977C66.1893 7.92513 66.1047 7.84049 66.02 7.75586C65.5545 7.50195 65.3218 7.375 65.3218 7.375C64.9832 7.20573 64.7716 7.12109 64.687 7.12109C64.6024 7.07878 64.5389 7.03646 64.4966 6.99414C64.3273 6.90951 64.1792 6.86719 64.0522 6.86719C63.9253 6.82487 63.8195 6.78255 63.7349 6.74023C63.6079 6.69792 63.481 6.67676 63.354 6.67676C63.2694 6.67676 63.1424 6.6556 62.9731 6.61328C62.5076 6.57096 62.2114 6.50749 62.0845 6.42285C61.9575 6.33822 61.8306 6.33822 61.7036 6.42285C61.4074 6.97298 61.217 7.375 61.1323 7.62891C61.09 7.84049 61.0477 8.07324 61.0054 8.32715L60.7515 9.40625C60.7091 9.5332 60.688 9.68132 60.688 9.85059C60.7303 10.0199 60.7303 10.1891 60.688 10.3584C60.5187 11.1201 60.4552 11.6702 60.4976 12.0088C60.5399 12.305 60.5822 12.6224 60.6245 12.9609C60.6245 13.1725 60.6034 13.3841 60.561 13.5957C60.561 13.8073 60.5822 14.0189 60.6245 14.2305C60.6245 14.3574 60.6457 14.4844 60.688 14.6113C60.7303 14.7383 60.7303 14.8864 60.688 15.0557C60.688 15.4788 60.6668 15.7327 60.6245 15.8174C60.6245 15.902 60.6245 15.9867 60.6245 16.0713C60.7515 16.6637 60.7938 17.0869 60.7515 17.3408C60.7515 17.5524 60.7938 17.764 60.8784 17.9756C60.6668 18.2718 60.6668 18.6738 60.8784 19.1816C60.7515 19.4355 60.7303 19.7106 60.8149 20.0068L60.8784 20.832C60.7938 21.1283 60.7515 21.3822 60.7515 21.5938C60.7091 21.9323 60.7091 22.2074 60.7515 22.4189C60.8361 22.5882 60.9207 22.7786 61.0054 22.9902C61.3862 22.9479 61.5767 22.9268 61.5767 22.9268C61.619 22.9268 61.6613 22.9056 61.7036 22.8633C62.2114 22.7786 62.4653 22.7363 62.4653 22.7363C62.7192 22.5671 62.8885 22.4824 62.9731 22.4824C63.1001 22.4824 63.2059 22.4613 63.2905 22.4189C63.7137 22.165 63.9676 22.0381 64.0522 22.0381C64.1369 21.9535 64.2427 21.89 64.3696 21.8477C64.4966 21.763 64.6024 21.6784 64.687 21.5938C65.1102 21.3822 65.3641 21.2764 65.4487 21.2764C65.745 21.1071 65.9142 21.0225 65.9565 21.0225C66.0412 21.0225 66.1258 21.0013 66.2104 20.959C66.5067 20.6628 66.7183 20.5146 66.8452 20.5146L67.4165 20.0068C67.882 19.626 68.284 19.3932 68.6226 19.3086C68.9611 19.224 69.1727 19.0547 69.2573 18.8008C69.3843 18.7161 69.4901 18.6527 69.5747 18.6104C69.6593 18.5257 69.744 18.4411 69.8286 18.3564C70.0402 18.1872 70.1883 18.0814 70.2729 18.0391C70.3576 17.9544 70.3999 17.891 70.3999 17.8486C70.6538 17.637 70.8231 17.5101 70.9077 17.4678C70.9924 17.4255 71.0558 17.362 71.0981 17.2773C71.3944 16.8965 71.5425 16.7061 71.5425 16.7061C71.6694 16.5368 71.7964 16.3887 71.9233 16.2617C72.0926 16.0924 72.2196 15.902 72.3042 15.6904C72.2196 15.5212 72.1349 15.3519 72.0503 15.1826C71.9657 15.0133 71.9022 14.8229 71.8599 14.6113ZM62.4653 41.6523C62.8885 41.6947 63.1213 41.6947 63.1636 41.6523C63.5868 41.6523 63.8195 41.6523 63.8618 41.6523C64.3273 41.5677 64.6024 41.5254 64.687 41.5254C64.7716 41.5254 64.8563 41.5042 64.9409 41.4619C65.3641 41.335 65.618 41.2292 65.7026 41.1445C66.0835 41.0599 66.2739 41.0176 66.2739 41.0176C66.3162 40.9753 66.3586 40.9541 66.4009 40.9541C66.6548 40.7848 66.8452 40.7002 66.9722 40.7002C67.1414 40.7002 67.2684 40.6579 67.353 40.5732C67.6916 40.277 67.9243 40.1077 68.0513 40.0654C68.1782 39.9808 68.3052 39.8962 68.4321 39.8115C68.7707 39.5576 68.9611 39.4307 69.0034 39.4307C69.0457 39.3883 69.0669 39.346 69.0669 39.3037C69.3208 39.0075 69.4689 38.8805 69.5112 38.9229C69.5959 38.9229 69.6593 38.9017 69.7017 38.8594C69.9556 38.2669 70.146 37.8861 70.2729 37.7168C70.3999 37.5052 70.5057 37.2725 70.5903 37.0186C70.9289 36.6377 71.1405 36.4049 71.2251 36.3203C71.3521 36.1934 71.4367 36.0876 71.479 36.0029C71.479 35.6644 71.479 35.4951 71.479 35.4951C71.5213 35.4528 71.5425 35.3893 71.5425 35.3047C71.4578 34.7122 71.4155 34.3737 71.4155 34.2891C71.4155 34.2044 71.3944 34.0563 71.3521 33.8447C71.0558 33.5485 70.8654 33.3792 70.7808 33.3369C70.7384 33.2523 70.7173 33.1465 70.7173 33.0195C70.3364 32.681 70.1037 32.5117 70.019 32.5117C69.9767 32.5117 69.9344 32.4906 69.8921 32.4482C69.6382 32.152 69.342 31.8981 69.0034 31.6865C68.6649 31.348 68.4533 31.1364 68.3687 31.0518C68.284 30.9248 68.1571 30.8402 67.9878 30.7979C67.7339 30.5016 67.5646 30.3324 67.48 30.29C67.3953 30.2477 67.3107 30.2054 67.2261 30.1631C66.8029 29.9092 66.5701 29.7611 66.5278 29.7188C66.3162 29.5495 66.147 29.4648 66.02 29.4648C65.9354 29.4648 65.8296 29.4437 65.7026 29.4014C65.3218 29.1475 65.089 28.9993 65.0044 28.957C64.9198 28.8724 64.8563 28.8512 64.814 28.8936C64.3485 28.7243 64.0734 28.6396 63.9888 28.6396C63.9465 28.6396 63.9041 28.6185 63.8618 28.5762C63.1001 28.2799 62.5923 28.1318 62.3384 28.1318C62.1691 28.0472 61.9152 28.0049 61.5767 28.0049C61.2804 27.9626 61.0688 27.9414 60.9419 27.9414C60.8149 28.1107 60.7515 28.4704 60.7515 29.0205C60.7515 29.359 60.7726 29.6976 60.8149 30.0361C60.8573 30.3324 60.8996 30.6497 60.9419 30.9883C60.9842 31.1576 61.0054 31.3268 61.0054 31.4961C61.0477 31.6654 61.0477 31.7923 61.0054 31.877C61.09 32.3001 61.1112 32.5329 61.0688 32.5752C61.0688 32.5752 61.0688 32.6175 61.0688 32.7021C61.1112 33.0407 61.1323 33.3158 61.1323 33.5273C61.09 33.7812 61.09 33.9717 61.1323 34.0986C61.1746 34.2256 61.1535 34.3102 61.0688 34.3525C61.1112 34.7334 61.1323 34.9661 61.1323 35.0508C61.1746 35.1354 61.1958 35.2201 61.1958 35.3047C61.2381 35.6855 61.2381 36.0241 61.1958 36.3203C61.1958 36.6165 61.1958 36.8704 61.1958 37.082L61.2593 37.7803C61.2593 38.0765 61.2804 38.2669 61.3228 38.3516C61.3651 38.4362 61.3862 38.542 61.3862 38.6689C61.4285 38.8382 61.4497 39.1344 61.4497 39.5576C61.4074 39.8962 61.3862 40.1077 61.3862 40.1924C61.4285 40.2347 61.4497 40.277 61.4497 40.3193C61.5343 40.7425 61.5555 40.9753 61.5132 41.0176C61.5132 41.0599 61.5343 41.1022 61.5767 41.1445C61.8306 41.5254 62.021 41.7158 62.1479 41.7158C62.2749 41.6735 62.3807 41.6523 62.4653 41.6523Z" fill="black"/>
<path d="M121.689 38.3516C121.689 38.4785 121.647 38.6055 121.562 38.7324C121.52 38.8171 121.477 38.9229 121.435 39.0498C121.393 39.473 121.329 39.7269 121.245 39.8115C121.202 40.277 121.139 40.5309 121.054 40.5732C121.012 40.6156 121.033 40.679 121.118 40.7637C120.948 40.8483 120.843 41.0176 120.8 41.2715C120.758 41.4831 120.694 41.6947 120.61 41.9062C120.525 42.1178 120.441 42.3294 120.356 42.541C120.314 42.7103 120.25 42.8796 120.166 43.0488C120.123 43.3451 120.102 43.5355 120.102 43.6201C120.102 43.6624 120.06 43.7259 119.975 43.8105L119.594 44.5723C119.594 44.7839 119.552 44.9531 119.467 45.0801C119.383 45.207 119.361 45.3551 119.404 45.5244C119.108 46.0745 118.938 46.5612 118.896 46.9844C118.515 47.3229 118.304 47.5768 118.261 47.7461C117.923 48 117.732 48.1481 117.69 48.1904C117.69 48.2327 117.669 48.2751 117.626 48.3174C117.457 48.3174 117.33 48.3385 117.246 48.3809C117.161 48.4655 117.034 48.5078 116.865 48.5078C116.442 48.5924 116.145 48.6771 115.976 48.7617C115.722 48.804 115.553 48.8464 115.468 48.8887C115.384 48.931 115.299 48.9733 115.214 49.0156C115.087 49.0156 114.96 48.9945 114.833 48.9521C114.707 48.9521 114.537 48.9521 114.326 48.9521C114.156 48.9521 113.987 48.9733 113.818 49.0156C113.649 49.0579 113.479 49.0791 113.31 49.0791C112.972 49.0368 112.76 49.0156 112.675 49.0156C112.591 49.0579 112.506 49.0791 112.421 49.0791C111.956 48.9945 111.66 48.9521 111.533 48.9521C111.406 48.9945 111.279 49.0156 111.152 49.0156C110.686 48.931 110.432 48.8887 110.39 48.8887C110.39 48.931 110.369 48.9521 110.327 48.9521C109.819 48.9098 109.396 48.8464 109.057 48.7617C108.761 48.804 108.549 48.804 108.422 48.7617C108.295 48.7194 108.168 48.7617 108.042 48.8887C107.661 48.8464 107.428 48.7829 107.343 48.6982C107.301 48.6559 107.259 48.6771 107.216 48.7617C106.708 48.5078 106.37 48.3597 106.201 48.3174C106.074 48.3174 105.968 48.2539 105.883 48.127C105.756 48.2116 105.608 48.2116 105.439 48.127C105.312 48.0846 105.206 48.1058 105.122 48.1904C104.868 48.0212 104.635 47.9365 104.423 47.9365C104.169 47.7673 103.894 47.6615 103.598 47.6191C103.175 47.4922 102.942 47.4287 102.9 47.4287C102.519 47.3018 102.286 47.2171 102.202 47.1748C101.821 46.9209 101.546 46.7516 101.376 46.667C101.25 46.5824 101.08 46.54 100.869 46.54L100.107 46.0957C99.6414 45.8418 99.3875 45.6937 99.3452 45.6514C99.3029 45.609 99.2183 45.5879 99.0913 45.5879C98.7528 45.2917 98.5412 45.1224 98.4565 45.0801C98.4142 44.9954 98.3296 44.9531 98.2026 44.9531L97.5044 44.4453C97.0812 44.276 96.8273 44.1279 96.7427 44.001C96.7004 43.874 96.6157 43.8317 96.4888 43.874C96.2349 43.6624 96.0656 43.5143 95.981 43.4297C95.8963 43.3027 95.7482 43.2393 95.5366 43.2393C95.0711 42.9007 94.7749 42.668 94.6479 42.541C94.5633 42.4141 94.4364 42.3294 94.2671 42.2871C94.2248 41.9909 94.0978 41.7793 93.8862 41.6523C93.8439 41.4408 93.7804 41.2926 93.6958 41.208C93.6112 41.0811 93.5265 40.9329 93.4419 40.7637C92.8494 40.4251 92.4051 39.9385 92.1089 39.3037C91.9396 39.1344 91.8127 38.944 91.728 38.7324C91.6857 38.5208 91.6011 38.3092 91.4741 38.0977C91.3895 38.013 91.326 37.8861 91.2837 37.7168C91.2414 37.5475 91.1779 37.4206 91.0933 37.3359C91.0086 37.1667 90.924 36.9762 90.8394 36.7646C90.797 36.5531 90.7124 36.3838 90.5854 36.2568C90.6278 36.0452 90.6066 35.8971 90.522 35.8125C90.4797 35.6855 90.4585 35.5586 90.4585 35.4316C90.2046 35.0931 90.0565 34.8604 90.0142 34.7334C90.0142 34.5641 89.9718 34.4372 89.8872 34.3525C89.7179 34.014 89.6333 33.8236 89.6333 33.7812C89.6756 33.7389 89.6756 33.6755 89.6333 33.5908C89.5487 33.4639 89.4852 33.3158 89.4429 33.1465C89.4006 32.9349 89.3371 32.7445 89.2524 32.5752C89.1678 32.279 89.1043 32.0885 89.062 32.0039C89.062 31.877 89.0197 31.7712 88.9351 31.6865C88.8504 31.221 88.8081 30.819 88.8081 30.4805C88.8081 30.0996 88.7235 29.8034 88.5542 29.5918C88.6388 29.2533 88.66 29.084 88.6177 29.084C88.5754 29.0417 88.5542 28.9782 88.5542 28.8936C88.5542 28.4704 88.5542 28.1318 88.5542 27.8779C88.5542 27.6663 88.533 27.4548 88.4907 27.2432C88.4484 26.9893 88.4061 26.7565 88.3638 26.5449C88.3638 26.2487 88.3638 25.9948 88.3638 25.7832C88.3638 25.5293 88.3426 25.2754 88.3003 25.0215C88.3003 24.7253 88.2791 24.5348 88.2368 24.4502C88.2368 24.3656 88.258 24.3021 88.3003 24.2598C88.3003 23.7943 88.3003 23.3923 88.3003 23.0537C88.3003 22.7152 88.3849 22.4401 88.5542 22.2285C88.6388 21.763 88.66 21.4668 88.6177 21.3398C88.6177 21.1706 88.5965 21.0225 88.5542 20.8955C88.6812 20.3031 88.7446 19.9434 88.7446 19.8164C88.7446 19.6471 88.7658 19.4779 88.8081 19.3086L88.9351 18.4199L89.1255 17.5312C89.2524 17.3197 89.3159 17.1292 89.3159 16.96C89.3582 16.7907 89.4217 16.6426 89.5063 16.5156C89.591 16.2194 89.6333 15.9867 89.6333 15.8174C89.6333 15.6481 89.6756 15.4788 89.7603 15.3096C89.8872 15.098 89.9507 14.971 89.9507 14.9287C89.9507 14.8441 89.993 14.7594 90.0776 14.6748C90.3315 14.3786 90.4373 14.2093 90.395 14.167C90.395 14.1247 90.4162 14.0824 90.4585 14.04C90.5431 13.7861 90.6066 13.638 90.6489 13.5957C90.6912 13.5534 90.7336 13.4899 90.7759 13.4053C90.9451 12.9821 91.0509 12.7493 91.0933 12.707C91.3895 12.3262 91.5376 12.0511 91.5376 11.8818C91.8338 11.501 91.9819 11.3105 91.9819 11.3105C91.9819 11.2682 92.0243 11.2259 92.1089 11.1836C92.3205 10.9297 92.4263 10.7816 92.4263 10.7393C92.4686 10.6546 92.5321 10.57 92.6167 10.4854C92.9129 10.0622 93.061 9.85059 93.061 9.85059C93.061 9.80827 93.0822 9.76595 93.1245 9.72363C93.5054 9.38509 93.6958 9.19466 93.6958 9.15234C93.6958 9.11003 93.717 9.06771 93.7593 9.02539C93.9709 8.68685 94.1401 8.4541 94.2671 8.32715C94.4364 8.15788 94.5633 8.05208 94.6479 8.00977C94.7326 7.92513 94.7749 7.84049 94.7749 7.75586C94.9865 7.71354 95.1346 7.65007 95.2192 7.56543C95.3462 7.43848 95.5155 7.33268 95.7271 7.24805C96.1502 6.82487 96.383 6.57096 96.4253 6.48633C96.7215 6.23242 96.8485 6.08431 96.8062 6.04199C96.8062 5.99967 96.8273 5.95736 96.8696 5.91504C97.1659 5.74577 97.3563 5.63997 97.4409 5.59766C97.5679 5.51302 97.6737 5.42839 97.7583 5.34375C98.0122 5.13216 98.1603 5.00521 98.2026 4.96289C98.2873 4.87826 98.3719 4.79362 98.4565 4.70898C99.049 4.45508 99.451 4.22233 99.6626 4.01074L100.488 3.75684C100.784 3.62988 101.017 3.43945 101.186 3.18555C101.694 3.05859 101.969 2.97396 102.011 2.93164C102.307 2.72005 102.477 2.61426 102.519 2.61426C102.604 2.57194 102.667 2.50846 102.709 2.42383C103.048 2.38151 103.238 2.36035 103.281 2.36035C103.365 2.31803 103.45 2.27572 103.535 2.2334C103.916 2.06413 104.169 1.97949 104.296 1.97949C104.466 1.97949 104.593 1.95833 104.677 1.91602C105.058 1.74674 105.249 1.68327 105.249 1.72559C105.291 1.72559 105.333 1.70443 105.375 1.66211C105.502 1.61979 105.608 1.57747 105.693 1.53516C105.82 1.49284 105.947 1.45052 106.074 1.4082C106.497 1.28125 106.772 1.21777 106.899 1.21777C107.026 1.21777 107.174 1.17546 107.343 1.09082C107.766 0.879232 108.042 0.794596 108.168 0.836914C108.295 0.836914 108.401 0.815755 108.486 0.773438C108.909 0.73112 109.163 0.688802 109.248 0.646484C109.375 0.561849 109.48 0.498372 109.565 0.456055C109.777 0.413737 109.967 0.392578 110.136 0.392578C110.348 0.392578 110.581 0.392578 110.834 0.392578C111.046 0.35026 111.258 0.307943 111.469 0.265625C111.723 0.223307 111.977 0.202148 112.231 0.202148H113.247C113.374 0.329102 113.543 0.392578 113.754 0.392578C114.008 0.35026 114.262 0.329102 114.516 0.329102C115.024 0.371419 115.32 0.413737 115.405 0.456055C115.489 0.456055 115.574 0.456055 115.659 0.456055C116.124 0.583008 116.399 0.646484 116.484 0.646484C116.611 0.604167 116.759 0.625326 116.928 0.709961C117.055 0.752279 117.161 0.815755 117.246 0.900391C117.33 0.985026 117.436 1.06966 117.563 1.1543C117.648 1.23893 117.732 1.32357 117.817 1.4082C117.902 1.49284 117.986 1.57747 118.071 1.66211C118.071 2.00065 118.134 2.2334 118.261 2.36035C118.388 2.78353 118.473 3.07975 118.515 3.24902C118.557 3.41829 118.621 3.58757 118.706 3.75684C118.79 4.26465 118.917 4.60319 119.086 4.77246C119.129 5.23796 119.171 5.4707 119.213 5.4707C119.425 5.85156 119.51 6.10547 119.467 6.23242C119.467 6.31706 119.488 6.40169 119.531 6.48633C119.658 6.6556 119.742 6.80371 119.785 6.93066C119.827 7.05762 119.933 7.16341 120.102 7.24805C120.187 7.67122 120.25 7.96745 120.292 8.13672C120.377 8.30599 120.462 8.47526 120.546 8.64453C120.716 9.15234 120.779 9.42741 120.737 9.46973C120.737 9.51204 120.737 9.57552 120.737 9.66016C120.737 9.74479 120.737 9.87174 120.737 10.041C120.779 10.168 120.821 10.3372 120.864 10.5488C120.694 10.8451 120.589 11.0143 120.546 11.0566C120.504 11.099 120.462 11.1624 120.419 11.2471C120.081 11.2894 119.89 11.3529 119.848 11.4375C119.848 11.4798 119.806 11.5433 119.721 11.6279C119.552 11.6279 119.383 11.6068 119.213 11.5645C119.086 11.5221 118.981 11.5433 118.896 11.6279C118.431 11.5856 118.155 11.5856 118.071 11.6279C118.028 11.6279 117.965 11.6279 117.88 11.6279C117.796 11.6279 117.669 11.6068 117.5 11.5645C117.373 11.5221 117.267 11.501 117.182 11.501C117.013 11.4163 116.822 11.3529 116.611 11.3105C116.399 11.2682 116.23 11.2471 116.103 11.2471C115.807 11.2894 115.574 11.3105 115.405 11.3105C115.278 11.2682 115.109 11.2259 114.897 11.1836C114.558 11.3952 114.178 11.4163 113.754 11.2471C113.67 11.3317 113.543 11.374 113.374 11.374C113.204 11.374 113.077 11.4375 112.993 11.5645C112.654 11.5645 112.4 11.5856 112.231 11.6279C111.596 11.7549 111.173 11.8184 110.961 11.8184C110.369 11.9876 109.967 12.1357 109.755 12.2627C109.586 12.3473 109.396 12.432 109.184 12.5166C109.015 12.6012 108.803 12.7282 108.549 12.8975C108.253 13.109 108.063 13.2148 107.978 13.2148C107.893 13.2148 107.809 13.236 107.724 13.2783C107.639 13.363 107.534 13.4476 107.407 13.5322C107.322 13.5745 107.216 13.638 107.089 13.7227C106.92 13.9342 106.73 14.1247 106.518 14.2939C106.306 14.4632 106.095 14.6536 105.883 14.8652C105.799 14.9499 105.714 15.0345 105.629 15.1191C105.545 15.2038 105.46 15.2884 105.375 15.373C105.079 15.5846 104.889 15.7539 104.804 15.8809C104.72 15.9655 104.635 16.0713 104.55 16.1982C104.042 16.5368 103.746 16.7695 103.662 16.8965C103.408 17.1081 103.175 17.4255 102.963 17.8486C102.794 18.2718 102.688 18.5046 102.646 18.5469C102.604 18.5892 102.583 18.6527 102.583 18.7373C102.202 19.1182 102.011 19.3932 102.011 19.5625C102.011 19.7318 101.969 19.8587 101.884 19.9434C101.715 20.3242 101.609 20.5358 101.567 20.5781C101.567 20.6204 101.567 20.6839 101.567 20.7686C101.525 20.8532 101.461 20.9801 101.376 21.1494C101.334 21.2764 101.313 21.4245 101.313 21.5938C101.101 21.9323 100.996 22.165 100.996 22.292C101.038 22.3766 101.017 22.4189 100.932 22.4189C100.847 22.9268 100.784 23.223 100.742 23.3076C100.742 23.3923 100.721 23.4769 100.678 23.5615C100.636 24.0693 100.615 24.3444 100.615 24.3867C100.657 24.429 100.678 24.4925 100.678 24.5771C100.509 25.0003 100.424 25.2754 100.424 25.4023C100.424 25.487 100.424 25.5716 100.424 25.6562C100.34 26.291 100.361 26.6084 100.488 26.6084C100.445 27.2432 100.403 27.751 100.361 28.1318C100.361 28.5127 100.403 28.8936 100.488 29.2744C100.572 29.6553 100.636 29.9303 100.678 30.0996C100.721 30.2266 100.742 30.3958 100.742 30.6074C100.784 30.819 100.805 30.9883 100.805 31.1152C100.805 31.2422 100.847 31.3903 100.932 31.5596C101.228 32.1943 101.482 32.681 101.694 33.0195C102.075 33.4427 102.265 33.6966 102.265 33.7812C102.307 33.8236 102.371 33.887 102.456 33.9717C102.625 34.4795 102.773 34.7969 102.9 34.9238C103.027 35.0085 103.175 35.1143 103.344 35.2412C103.556 35.4105 103.704 35.5374 103.789 35.6221C103.873 35.6644 103.979 35.6855 104.106 35.6855C104.191 35.8548 104.318 35.9818 104.487 36.0664C104.656 36.151 104.847 36.2357 105.058 36.3203C105.481 36.5742 105.714 36.7223 105.756 36.7646C105.841 36.807 105.926 36.8281 106.01 36.8281C106.433 36.9551 106.645 37.082 106.645 37.209C107.068 37.3783 107.301 37.4629 107.343 37.4629C107.386 37.4206 107.407 37.4417 107.407 37.5264C107.618 37.5264 107.788 37.5687 107.915 37.6533C108.084 37.6956 108.232 37.7591 108.359 37.8438C108.824 37.8861 109.078 37.9284 109.121 37.9707C109.205 38.013 109.311 38.0553 109.438 38.0977C109.65 38.14 109.861 38.1611 110.073 38.1611C110.284 38.1611 110.454 38.2035 110.581 38.2881C110.919 38.2881 111.11 38.2881 111.152 38.2881C111.194 38.2881 111.258 38.3304 111.342 38.415C111.808 38.4574 112.083 38.4785 112.167 38.4785C112.294 38.4362 112.4 38.415 112.485 38.415C112.95 38.542 113.204 38.5843 113.247 38.542C113.712 38.4997 114.029 38.4997 114.199 38.542C114.368 38.542 114.537 38.4997 114.707 38.415C115.13 38.415 115.362 38.4362 115.405 38.4785C115.447 38.4785 115.489 38.4785 115.532 38.4785C115.659 38.4785 115.786 38.4574 115.913 38.415C116.082 38.3304 116.23 38.2669 116.357 38.2246C116.695 38.2669 116.886 38.2669 116.928 38.2246C117.013 38.1823 117.097 38.14 117.182 38.0977C117.69 38.0977 118.007 38.0342 118.134 37.9072C118.346 37.9072 118.515 37.8861 118.642 37.8438C118.811 37.8014 118.938 37.7591 119.023 37.7168C119.531 37.5898 119.785 37.4629 119.785 37.3359C119.954 37.3783 120.102 37.4206 120.229 37.4629C120.356 37.5052 120.504 37.5052 120.673 37.4629C120.758 37.5475 120.864 37.6533 120.991 37.7803C121.118 37.8649 121.245 37.9072 121.372 37.9072L121.689 38.3516ZM127.91 27.4336C128.121 27.1374 128.142 26.7777 127.973 26.3545C127.889 26.0583 127.867 25.889 127.91 25.8467C127.952 25.8044 127.952 25.7409 127.91 25.6562C127.867 25.3177 127.867 25.085 127.91 24.958C127.952 24.7887 127.952 24.6195 127.91 24.4502C127.91 24.1117 127.91 23.9424 127.91 23.9424C127.952 23.9001 127.973 23.8366 127.973 23.752C127.973 23.498 127.952 23.3499 127.91 23.3076C127.91 23.223 127.91 23.1383 127.91 23.0537C127.952 22.7152 127.952 22.5247 127.91 22.4824C127.91 22.4401 127.91 22.3978 127.91 22.3555V21.2764C127.91 20.8109 127.91 20.4512 127.91 20.1973C127.952 19.6471 127.952 19.2874 127.91 19.1182C127.867 18.9066 127.867 18.7161 127.91 18.5469C127.867 18.0814 127.846 17.7217 127.846 17.4678C127.846 17.1715 127.846 16.9388 127.846 16.7695C127.889 16.0501 127.889 15.5212 127.846 15.1826C127.846 14.8441 127.867 14.569 127.91 14.3574C127.994 13.9766 127.994 13.5534 127.91 13.0879C127.91 12.8763 127.91 12.6647 127.91 12.4531C127.952 12.2415 127.952 12.0299 127.91 11.8184C127.867 11.3529 127.867 11.0778 127.91 10.9932C127.867 10.7393 127.825 10.57 127.783 10.4854C127.74 10.4007 127.719 10.3161 127.719 10.2314C127.719 10.0199 127.719 9.85059 127.719 9.72363C127.762 9.55436 127.762 9.40625 127.719 9.2793C127.719 8.98307 127.698 8.79264 127.656 8.70801C127.613 8.62337 127.592 8.53874 127.592 8.4541C127.508 7.98861 127.465 7.67122 127.465 7.50195C127.423 6.82487 127.402 6.27474 127.402 5.85156C127.444 5.42839 127.423 5.04753 127.338 4.70898C127.338 4.58203 127.317 4.45508 127.275 4.32812C127.233 4.20117 127.211 4.07422 127.211 3.94727C127.211 3.77799 127.211 3.60872 127.211 3.43945C127.254 3.22786 127.296 3.01628 127.338 2.80469C127.423 2.5931 127.465 2.40267 127.465 2.2334C127.508 2.02181 127.571 1.8737 127.656 1.78906C128.037 1.57747 128.206 1.45052 128.164 1.4082C128.164 1.32357 128.206 1.26009 128.291 1.21777C128.417 1.17546 128.523 1.11198 128.608 1.02734C128.693 0.942708 128.798 0.858073 128.925 0.773438C129.348 0.73112 129.56 0.709961 129.56 0.709961C129.602 0.667643 129.666 0.646484 129.75 0.646484C130.004 0.688802 130.216 0.709961 130.385 0.709961C130.597 0.667643 130.787 0.688802 130.957 0.773438C131.041 0.688802 131.147 0.667643 131.274 0.709961C131.401 0.709961 131.549 0.709961 131.718 0.709961H132.543C132.713 0.879232 132.882 0.963867 133.051 0.963867C133.221 0.963867 133.411 0.963867 133.623 0.963867C134.088 1.00618 134.469 0.985026 134.765 0.900391C135.061 0.815755 135.358 0.773438 135.654 0.773438C135.865 0.773438 136.056 0.794596 136.225 0.836914C136.394 0.879232 136.542 0.858073 136.669 0.773438C136.839 0.858073 137.029 0.900391 137.241 0.900391C137.495 0.900391 137.727 0.921549 137.939 0.963867C138.362 1.0485 138.764 1.0485 139.145 0.963867H139.843C140.055 0.963867 140.245 0.985026 140.415 1.02734C140.626 1.02734 140.838 1.02734 141.049 1.02734C141.557 0.985026 141.811 0.963867 141.811 0.963867C141.98 0.963867 142.15 0.963867 142.319 0.963867C142.53 0.963867 142.763 0.985026 143.017 1.02734C143.525 1.06966 143.779 1.11198 143.779 1.1543C143.821 1.1543 143.863 1.1543 143.906 1.1543C144.033 1.1543 144.181 1.1543 144.35 1.1543C144.519 1.11198 144.646 1.13314 144.731 1.21777C145.239 1.17546 145.514 1.17546 145.556 1.21777C145.641 1.21777 145.725 1.21777 145.81 1.21777L146.889 1.4082C147.27 1.4082 147.482 1.42936 147.524 1.47168C147.566 1.514 147.63 1.514 147.714 1.47168C148.053 1.68327 148.264 1.78906 148.349 1.78906C148.434 1.74674 148.518 1.74674 148.603 1.78906C148.772 1.8737 148.899 1.97949 148.984 2.10645C149.111 2.19108 149.238 2.21224 149.365 2.16992C149.661 2.46615 149.809 2.5931 149.809 2.55078C149.809 2.50846 149.851 2.52962 149.936 2.61426C150.063 2.78353 150.169 2.88932 150.253 2.93164C150.338 2.97396 150.423 3.01628 150.507 3.05859C150.761 3.35482 150.909 3.52409 150.952 3.56641C150.994 3.56641 151.015 3.60872 151.015 3.69336C151.438 4.0319 151.65 4.20117 151.65 4.20117C151.904 4.37044 152.073 4.51855 152.158 4.64551C152.242 4.77246 152.39 4.83594 152.602 4.83594C152.814 5.2168 153.004 5.40723 153.173 5.40723C153.173 5.53418 153.216 5.63997 153.3 5.72461C153.427 5.76693 153.491 5.89388 153.491 6.10547C153.745 6.27474 153.935 6.42285 154.062 6.5498C154.231 6.76139 154.401 6.95182 154.57 7.12109L155.014 7.69238C155.268 7.98861 155.416 8.17904 155.458 8.26367C155.585 8.43294 155.691 8.62337 155.776 8.83496C155.903 9.00423 155.966 9.1735 155.966 9.34277C156.178 9.55436 156.305 9.76595 156.347 9.97754C156.601 10.4007 156.749 10.6335 156.792 10.6758C156.834 10.6758 156.876 10.7181 156.918 10.8027C157.045 11.099 157.13 11.2682 157.172 11.3105C157.215 11.3529 157.278 11.4163 157.363 11.501C157.701 11.8395 157.871 12.0299 157.871 12.0723C157.913 12.1146 157.976 12.1146 158.061 12.0723C158.103 12.2415 158.146 12.4108 158.188 12.5801C158.273 12.707 158.357 12.8551 158.442 13.0244C158.653 13.4476 158.78 13.7438 158.823 13.9131C158.907 14.04 159.034 14.1458 159.204 14.2305C159.288 14.6113 159.436 14.9287 159.648 15.1826C159.902 15.3942 160.071 15.7327 160.156 16.1982C160.24 16.3252 160.304 16.4733 160.346 16.6426C160.431 16.7695 160.515 16.9176 160.6 17.0869C160.812 17.4255 160.896 17.6159 160.854 17.6582C160.854 17.7005 160.875 17.7428 160.917 17.7852L161.298 18.5469C161.51 18.8431 161.616 19.0547 161.616 19.1816C161.616 19.3086 161.658 19.4567 161.743 19.626C161.87 19.9222 161.954 20.1338 161.997 20.2607C162.039 20.3877 162.081 20.5358 162.124 20.7051C162.208 20.8743 162.25 21.0436 162.25 21.2129C162.293 21.3398 162.335 21.4668 162.377 21.5938C162.547 22.1016 162.674 22.3978 162.758 22.4824C162.801 22.6094 162.779 22.7363 162.695 22.8633C162.61 22.9479 162.61 23.0537 162.695 23.1807C162.779 23.4346 162.822 23.6038 162.822 23.6885C162.864 23.7308 162.885 23.7943 162.885 23.8789C162.928 24.0059 162.97 24.154 163.012 24.3232C163.097 24.4925 163.139 24.6406 163.139 24.7676C163.055 25.2754 163.033 25.6139 163.076 25.7832C163.118 25.9525 163.055 26.0794 162.885 26.1641C162.97 26.4603 163.012 26.7142 163.012 26.9258C163.055 27.0951 163.033 27.3278 162.949 27.624C162.822 28.0049 162.716 28.2165 162.631 28.2588C162.589 28.2588 162.547 28.3011 162.504 28.3857C162.377 28.7243 162.293 28.9359 162.25 29.0205C162.25 29.0628 162.229 29.1051 162.187 29.1475C162.06 29.3167 161.954 29.5706 161.87 29.9092C161.785 29.9938 161.7 30.0996 161.616 30.2266C161.531 30.3535 161.51 30.5228 161.552 30.7344C161.341 31.2845 161.129 31.7288 160.917 32.0674C160.621 32.5329 160.452 32.8714 160.41 33.083C160.41 33.2523 160.367 33.4004 160.283 33.5273L159.902 34.1621C159.606 34.5853 159.415 34.9027 159.331 35.1143C159.288 35.2835 159.225 35.474 159.14 35.6855C158.971 36.0664 158.865 36.3203 158.823 36.4473C158.78 36.5742 158.717 36.7223 158.632 36.8916C158.548 37.1032 158.463 37.2936 158.378 37.4629C158.294 37.6322 158.209 37.8226 158.125 38.0342C157.913 38.1188 157.765 38.3304 157.68 38.6689C157.426 38.7959 157.236 39.0498 157.109 39.4307C156.94 39.5153 156.813 39.6423 156.728 39.8115C156.686 39.9385 156.601 40.0866 156.474 40.2559C156.178 40.5944 156.009 40.7848 155.966 40.8271C155.966 40.8271 155.945 40.8271 155.903 40.8271C155.818 40.9118 155.734 41.0387 155.649 41.208C155.607 41.335 155.522 41.4408 155.395 41.5254C155.141 41.8639 155.014 42.0755 155.014 42.1602C154.549 42.5833 154.274 42.8584 154.189 42.9854C154.02 43.1546 153.872 43.3027 153.745 43.4297C153.618 43.5143 153.512 43.6624 153.427 43.874C153.089 44.1279 152.877 44.3607 152.792 44.5723C152.496 44.8262 152.285 44.9954 152.158 45.0801C152.031 45.1224 151.925 45.2282 151.84 45.3975C151.671 45.3975 151.544 45.4398 151.459 45.5244C151.375 45.609 151.29 45.6937 151.206 45.7783C150.825 46.0322 150.571 46.138 150.444 46.0957L150.063 46.7305C149.851 46.8997 149.682 46.9844 149.555 46.9844C149.471 46.9844 149.386 47.0267 149.301 47.1113C149.132 47.2806 148.963 47.4499 148.793 47.6191L148.222 48.0635C147.841 48.1904 147.503 48.2539 147.207 48.2539C146.826 48.3385 146.593 48.3597 146.508 48.3174C146.424 48.2751 146.339 48.2539 146.254 48.2539C145.789 48.2962 145.493 48.2962 145.366 48.2539C145.281 48.2116 145.175 48.1693 145.048 48.127C144.921 48.127 144.689 48.1693 144.35 48.2539C144.096 48.1693 143.842 48.1481 143.588 48.1904C143.334 48.2327 143.059 48.2116 142.763 48.127C142.34 48.0846 141.959 48.0635 141.621 48.0635C141.324 48.1058 141.092 48.0846 140.922 48C140.753 48.0423 140.584 48.0635 140.415 48.0635C140.288 48.1058 140.118 48.127 139.907 48.127C139.611 48.0846 139.42 48.0846 139.335 48.127C139.293 48.1693 139.23 48.1904 139.145 48.1904C138.68 48.1904 138.426 48.2116 138.383 48.2539C138.341 48.2962 138.278 48.3174 138.193 48.3174C137.727 48.3174 137.41 48.3597 137.241 48.4443C137.071 48.402 136.881 48.3809 136.669 48.3809C136.458 48.3809 136.246 48.402 136.035 48.4443C135.527 48.529 135.188 48.5501 135.019 48.5078C134.85 48.5078 134.659 48.5078 134.448 48.5078C134.025 48.5501 133.75 48.5501 133.623 48.5078C133.538 48.5078 133.453 48.5501 133.369 48.6348C133.115 48.4655 132.797 48.4655 132.417 48.6348C132.036 48.804 131.739 48.7829 131.528 48.5713C131.401 48.6559 131.21 48.6771 130.957 48.6348C130.745 48.5924 130.533 48.5713 130.322 48.5713C129.983 48.6136 129.729 48.5924 129.56 48.5078C128.968 48.2116 128.671 48.0423 128.671 48C128.671 47.9154 128.65 47.7673 128.608 47.5557C128.523 47.1748 128.502 46.9632 128.544 46.9209C128.587 46.8786 128.608 46.8151 128.608 46.7305V45.9688C128.608 45.7995 128.608 45.609 128.608 45.3975C128.65 45.1859 128.693 44.9531 128.735 44.6992C128.862 44.0221 128.904 43.5566 128.862 43.3027C128.862 43.0488 128.883 42.7949 128.925 42.541C129.01 41.9909 129.031 41.6523 128.989 41.5254C128.946 41.1445 128.925 40.9329 128.925 40.8906C128.968 40.8483 128.989 40.7848 128.989 40.7002C128.989 40.3617 128.968 40.1712 128.925 40.1289C128.883 40.0443 128.862 39.9596 128.862 39.875C128.946 39.4095 128.968 39.1768 128.925 39.1768C128.883 39.1344 128.862 39.071 128.862 38.9863C128.862 38.7324 128.819 38.4785 128.735 38.2246V37.4629C128.693 36.8704 128.65 36.4896 128.608 36.3203C128.481 35.8548 128.417 35.5163 128.417 35.3047C128.46 35.0508 128.481 34.8392 128.481 34.6699C128.439 34.3314 128.439 33.9717 128.481 33.5908C128.481 33.4639 128.46 33.2734 128.417 33.0195C128.375 32.7656 128.354 32.5329 128.354 32.3213C128.312 31.8135 128.269 31.5384 128.227 31.4961C128.227 31.4538 128.227 31.3903 128.227 31.3057V30.2266C128.142 29.888 128.1 29.6976 128.1 29.6553C128.142 29.5706 128.164 29.486 128.164 29.4014C128.121 28.8512 128.121 28.4492 128.164 28.1953C128.206 27.8991 128.121 27.6452 127.91 27.4336ZM141.367 41.7793C141.705 41.8216 141.938 41.8005 142.065 41.7158C142.234 41.6312 142.382 41.5465 142.509 41.4619C142.89 41.1234 143.038 40.9329 142.954 40.8906C142.911 40.8483 142.932 40.8271 143.017 40.8271C143.483 40.404 143.758 40.1501 143.842 40.0654C143.969 39.9385 144.075 39.8327 144.16 39.748C144.498 39.3249 144.71 39.071 144.794 38.9863C144.921 38.8594 145.027 38.7324 145.112 38.6055C145.281 38.3516 145.408 38.1188 145.493 37.9072C145.62 37.6533 145.789 37.4417 146 37.2725C146 37.0609 146.022 36.8916 146.064 36.7646C146.149 36.6377 146.233 36.5319 146.318 36.4473C146.445 36.1087 146.529 35.9395 146.572 35.9395C146.656 35.9395 146.72 35.9183 146.762 35.876C146.762 35.6644 146.889 35.4316 147.143 35.1777C147.27 34.9661 147.376 34.7757 147.46 34.6064C147.587 34.3949 147.693 34.2044 147.778 34.0352C147.905 33.7812 148.032 33.5273 148.159 33.2734C148.328 32.9772 148.455 32.7233 148.54 32.5117L148.857 31.877C149.069 31.3691 149.238 31.0518 149.365 30.9248C149.576 30.29 149.767 29.7822 149.936 29.4014C150.105 29.0205 150.275 28.6608 150.444 28.3223L150.952 27.8145C151.036 27.6029 151.057 27.3913 151.015 27.1797C151.015 26.9681 151.036 26.82 151.079 26.7354C151.163 26.4391 151.227 26.2699 151.269 26.2275C151.311 26.1852 151.333 26.1217 151.333 26.0371C151.417 25.8255 151.438 25.6562 151.396 25.5293C151.396 25.4023 151.396 25.2754 151.396 25.1484C151.354 24.8945 151.311 24.6618 151.269 24.4502C151.269 24.2386 151.29 24.027 151.333 23.8154C151.163 23.4346 151.079 23.1807 151.079 23.0537C151.079 22.9268 151.057 22.821 151.015 22.7363C150.973 22.6517 150.909 22.5459 150.825 22.4189C150.782 22.2497 150.74 22.1227 150.698 22.0381C150.528 21.6572 150.423 21.4456 150.38 21.4033C150.126 21.0648 149.978 20.832 149.936 20.7051C149.936 20.5781 149.915 20.4723 149.873 20.3877C149.661 20.0915 149.534 19.901 149.492 19.8164C149.449 19.6895 149.407 19.5837 149.365 19.499C149.153 18.9912 149.047 18.695 149.047 18.6104C148.836 18.1872 148.709 17.9544 148.667 17.9121C148.667 17.8275 148.645 17.7428 148.603 17.6582C148.349 17.235 148.201 17.0234 148.159 17.0234C148.116 16.9811 148.074 16.9388 148.032 16.8965C147.905 16.5579 147.799 16.3464 147.714 16.2617C147.46 15.7539 147.312 15.4788 147.27 15.4365C146.889 15.0133 146.656 14.6748 146.572 14.4209C146.318 13.9977 146.106 13.6803 145.937 13.4688C145.81 13.2572 145.704 13.0244 145.62 12.7705L145.112 12.1992C144.9 11.903 144.752 11.6702 144.667 11.501C144.414 11.0778 144.244 10.8027 144.16 10.6758C143.821 10.2526 143.588 9.9987 143.461 9.91406C143.377 9.78711 143.292 9.68132 143.208 9.59668C142.403 8.9196 141.811 8.39062 141.43 8.00977C141.049 7.88281 140.817 7.81934 140.732 7.81934C140.647 7.77702 140.605 7.7347 140.605 7.69238C140.266 7.52311 139.991 7.43848 139.78 7.43848C139.611 7.65007 139.484 7.75586 139.399 7.75586C139.314 7.75586 139.251 7.81934 139.208 7.94629C139.208 8.4541 139.187 8.75033 139.145 8.83496C139.145 8.87728 139.145 8.94076 139.145 9.02539C139.145 9.44857 139.145 9.72363 139.145 9.85059C139.187 9.93522 139.166 10.0199 139.082 10.1045C139.082 10.4854 139.082 10.7816 139.082 10.9932C139.124 11.2048 139.124 11.4163 139.082 11.6279V12.6436C139.039 12.8975 139.018 13.1302 139.018 13.3418C139.06 13.5111 139.082 13.7015 139.082 13.9131C139.082 14.0824 139.082 14.2728 139.082 14.4844C139.124 14.6536 139.124 14.8018 139.082 14.9287C139.039 15.4365 139.039 15.7327 139.082 15.8174C138.997 16.3252 138.976 16.7484 139.018 17.0869C139.103 17.3831 139.166 17.7005 139.208 18.0391C139.166 18.8431 139.145 19.4355 139.145 19.8164C139.187 20.1973 139.187 20.557 139.145 20.8955C139.018 21.8265 138.997 22.5459 139.082 23.0537C139.082 23.5192 139.082 23.7731 139.082 23.8154C139.124 23.8154 139.124 23.8577 139.082 23.9424C138.997 24.4079 138.955 24.8099 138.955 25.1484C138.997 25.487 139.018 25.8044 139.018 26.1006C139.018 26.2275 138.997 26.3545 138.955 26.4814C138.955 26.6084 138.955 26.7354 138.955 26.8623C138.955 27.1585 138.976 27.4971 139.018 27.8779C139.103 28.2588 139.145 28.5973 139.145 28.8936C139.145 29.2321 139.145 29.4648 139.145 29.5918C139.187 29.7188 139.23 29.8669 139.272 30.0361L139.208 30.8613C139.208 30.9883 139.208 31.1152 139.208 31.2422C139.251 31.3268 139.293 31.4326 139.335 31.5596C139.335 31.6865 139.335 31.8135 139.335 31.9404C139.335 32.0674 139.378 32.1732 139.462 32.2578C139.378 32.554 139.335 32.7233 139.335 32.7656C139.378 32.8079 139.399 32.8714 139.399 32.9561C139.441 33.6755 139.462 34.1198 139.462 34.2891C139.505 34.5007 139.505 34.7334 139.462 34.9873C139.462 35.2412 139.484 35.474 139.526 35.6855C139.526 35.8548 139.547 36.0241 139.589 36.1934C139.632 36.3203 139.653 36.4261 139.653 36.5107C139.653 36.7646 139.632 36.9974 139.589 37.209C139.547 37.4206 139.589 37.6322 139.716 37.8438C139.674 38.3939 139.653 38.7536 139.653 38.9229C139.653 39.0498 139.695 39.1556 139.78 39.2402C139.653 39.3672 139.632 39.5576 139.716 39.8115C139.801 40.0654 139.843 40.277 139.843 40.4463C139.928 40.9118 139.97 41.2715 139.97 41.5254C140.182 41.61 140.393 41.6735 140.605 41.7158C140.859 41.7581 141.113 41.7793 141.367 41.7793Z" fill="#FA8907"/>
</svg>
